0
SECTION
2
HEADER
9
$ACADVER
1
AC1024
9
$INSUNITS
70
6
0
ENDSEC
0
SECTION
2
ENTITIES
0
LWPOLYLINE
100
AcDbEntity
8
ГРАНИЦА_ПРОЕКТА
100
AcDbPolyline
90
4
70
1
10
0
20
0
10
120
20
0
10
120
20
76
10
0
20
76
0
LWPOLYLINE
100
AcDbEntity
8
ЗДАНИЕ
100
AcDbPolyline
90
4
70
1
10
12
20
26
10
35
20
26
10
35
20
56
10
12
20
56
0
LWPOLYLINE
100
AcDbEntity
8
ДОРОГА
100
AcDbPolyline
90
4
70
1
10
0
20
9
10
120
20
9
10
120
20
17
10
0
20
17
0
LWPOLYLINE
100
AcDbEntity
8
ВОДОЕМ
100
AcDbPolyline
90
4
70
1
10
92
20
47
10
109
20
47
10
109
20
65
10
92
20
65
0
LINE
100
AcDbEntity
8
ВОДОПРОВОД
100
AcDbLine
10
59
20
0
11
59
21
76
0
CIRCLE
100
AcDbEntity
8
СУЩЕСТВУЮЩИЕ_ДЕРЕВЬЯ
100
AcDbCircle
10
78
20
48
40
3
0
ENDSEC
0
EOF
