0
SECTION
2
TABLES
0
TABLE
2
LAYER
5
26C
100
AcDbSymbolTable
70
3
0
LAYER
5
269
100
AcDbSymbolTableRecord
100
AcDbLayerTableRecord
2
GREENLEAVES_TREES
70
0
62
3
6
CONTINUOUS
0
LAYER
5
26A
100
AcDbSymbolTableRecord
100
AcDbLayerTableRecord
2
GREENLEAVES_SHRUBS
70
0
62
94
6
CONTINUOUS
0
LAYER
5
26B
100
AcDbSymbolTableRecord
100
AcDbLayerTableRecord
2
GREENLEAVES_LABELS
70
0
62
7
6
CONTINUOUS
0
ENDTAB
0
ENDSEC
0
SECTION
2
HEADER
9
$ACADVER
1
AC1024
9
$INSUNITS
70
6
0
ENDSEC
0
SECTION
2
ENTITIES
0
LWPOLYLINE
100
AcDbEntity
8
\U+0413\U+0420\U+0410\U+041D\U+0418\U+0426\U+0410_\U+041F\U+0420\U+041E\U+0415\U+041A\U+0422\U+0410
100
AcDbPolyline
90
4
70
1
10
0
20
0
10
120
20
0
10
120
20
76
10
0
20
76
0
LWPOLYLINE
100
AcDbEntity
8
\U+0417\U+0414\U+0410\U+041D\U+0418\U+0415
100
AcDbPolyline
90
4
70
1
10
12
20
26
10
35
20
26
10
35
20
56
10
12
20
56
0
LWPOLYLINE
100
AcDbEntity
8
\U+0414\U+041E\U+0420\U+041E\U+0413\U+0410
100
AcDbPolyline
90
4
70
1
10
0
20
9
10
120
20
9
10
120
20
17
10
0
20
17
0
LWPOLYLINE
100
AcDbEntity
8
\U+0412\U+041E\U+0414\U+041E\U+0415\U+041C
100
AcDbPolyline
90
4
70
1
10
92
20
47
10
109
20
47
10
109
20
65
10
92
20
65
0
LINE
100
AcDbEntity
8
\U+0412\U+041E\U+0414\U+041E\U+041F\U+0420\U+041E\U+0412\U+041E\U+0414
100
AcDbLine
10
59
20
0
11
59
21
76
0
CIRCLE
100
AcDbEntity
8
\U+0421\U+0423\U+0429\U+0415\U+0421\U+0422\U+0412\U+0423\U+042E\U+0429\U+0418\U+0415_\U+0414\U+0415\U+0420\U+0415\U+0412\U+042C\U+042F
100
AcDbCircle
10
78
20
48
40
3
0
CIRCLE
5
101
100
AcDbEntity
8
GREENLEAVES_TREES
100
AcDbCircle
10
10
20
6
30
0
40
3
0
TEXT
5
102
100
AcDbEntity
8
GREENLEAVES_LABELS
100
AcDbText
10
11
20
7
30
0
40
0.5
1
GL-0001
100
AcDbText
0
CIRCLE
5
103
100
AcDbEntity
8
GREENLEAVES_TREES
100
AcDbCircle
10
22
20
6
30
0
40
3
0
TEXT
5
104
100
AcDbEntity
8
GREENLEAVES_LABELS
100
AcDbText
10
23
20
7
30
0
40
0.5
1
GL-0002
100
AcDbText
0
CIRCLE
5
105
100
AcDbEntity
8
GREENLEAVES_TREES
100
AcDbCircle
10
34
20
6
30
0
40
3
0
TEXT
5
106
100
AcDbEntity
8
GREENLEAVES_LABELS
100
AcDbText
10
35
20
7
30
0
40
0.5
1
GL-0003
100
AcDbText
0
CIRCLE
5
107
100
AcDbEntity
8
GREENLEAVES_TREES
100
AcDbCircle
10
46
20
6
30
0
40
3
0
TEXT
5
108
100
AcDbEntity
8
GREENLEAVES_LABELS
100
AcDbText
10
47
20
7
30
0
40
0.5
1
GL-0004
100
AcDbText
0
CIRCLE
5
109
100
AcDbEntity
8
GREENLEAVES_TREES
100
AcDbCircle
10
70
20
6
30
0
40
3
0
TEXT
5
10A
100
AcDbEntity
8
GREENLEAVES_LABELS
100
AcDbText
10
71
20
7
30
0
40
0.5
1
GL-0005
100
AcDbText
0
CIRCLE
5
10B
100
AcDbEntity
8
GREENLEAVES_TREES
100
AcDbCircle
10
82
20
6
30
0
40
3
0
TEXT
5
10C
100
AcDbEntity
8
GREENLEAVES_LABELS
100
AcDbText
10
83
20
7
30
0
40
0.5
1
GL-0006
100
AcDbText
0
CIRCLE
5
10D
100
AcDbEntity
8
GREENLEAVES_TREES
100
AcDbCircle
10
94
20
6
30
0
40
3
0
TEXT
5
10E
100
AcDbEntity
8
GREENLEAVES_LABELS
100
AcDbText
10
95
20
7
30
0
40
0.5
1
GL-0007
100
AcDbText
0
CIRCLE
5
10F
100
AcDbEntity
8
GREENLEAVES_TREES
100
AcDbCircle
10
106
20
6
30
0
40
3
0
TEXT
5
110
100
AcDbEntity
8
GREENLEAVES_LABELS
100
AcDbText
10
107
20
7
30
0
40
0.5
1
GL-0008
100
AcDbText
0
CIRCLE
5
111
100
AcDbEntity
8
GREENLEAVES_TREES
100
AcDbCircle
10
6
20
22
30
0
40
3
0
TEXT
5
112
100
AcDbEntity
8
GREENLEAVES_LABELS
100
AcDbText
10
7
20
23
30
0
40
0.5
1
GL-0009
100
AcDbText
0
CIRCLE
5
113
100
AcDbEntity
8
GREENLEAVES_TREES
100
AcDbCircle
10
42
20
22
30
0
40
3
0
TEXT
5
114
100
AcDbEntity
8
GREENLEAVES_LABELS
100
AcDbText
10
43
20
23
30
0
40
0.5
1
GL-0010
100
AcDbText
0
CIRCLE
5
115
100
AcDbEntity
8
GREENLEAVES_TREES
100
AcDbCircle
10
54
20
22
30
0
40
3
0
TEXT
5
116
100
AcDbEntity
8
GREENLEAVES_LABELS
100
AcDbText
10
55
20
23
30
0
40
0.5
1
GL-0011
100
AcDbText
0
CIRCLE
5
117
100
AcDbEntity
8
GREENLEAVES_TREES
100
AcDbCircle
10
66
20
22
30
0
40
3
0
TEXT
5
118
100
AcDbEntity
8
GREENLEAVES_LABELS
100
AcDbText
10
67
20
23
30
0
40
0.5
1
GL-0012
100
AcDbText
0
CIRCLE
5
119
100
AcDbEntity
8
GREENLEAVES_TREES
100
AcDbCircle
10
78
20
22
30
0
40
3
0
TEXT
5
11A
100
AcDbEntity
8
GREENLEAVES_LABELS
100
AcDbText
10
79
20
23
30
0
40
0.5
1
GL-0013
100
AcDbText
0
CIRCLE
5
11B
100
AcDbEntity
8
GREENLEAVES_TREES
100
AcDbCircle
10
90
20
22
30
0
40
3
0
TEXT
5
11C
100
AcDbEntity
8
GREENLEAVES_LABELS
100
AcDbText
10
91
20
23
30
0
40
0.5
1
GL-0014
100
AcDbText
0
CIRCLE
5
11D
100
AcDbEntity
8
GREENLEAVES_TREES
100
AcDbCircle
10
102
20
22
30
0
40
3
0
TEXT
5
11E
100
AcDbEntity
8
GREENLEAVES_LABELS
100
AcDbText
10
103
20
23
30
0
40
0.5
1
GL-0015
100
AcDbText
0
CIRCLE
5
11F
100
AcDbEntity
8
GREENLEAVES_TREES
100
AcDbCircle
10
114
20
22
30
0
40
3
0
TEXT
5
120
100
AcDbEntity
8
GREENLEAVES_LABELS
100
AcDbText
10
115
20
23
30
0
40
0.5
1
GL-0016
100
AcDbText
0
CIRCLE
5
121
100
AcDbEntity
8
GREENLEAVES_TREES
100
AcDbCircle
10
46
20
30
30
0
40
3
0
TEXT
5
122
100
AcDbEntity
8
GREENLEAVES_LABELS
100
AcDbText
10
47
20
31
30
0
40
0.5
1
GL-0017
100
AcDbText
0
CIRCLE
5
123
100
AcDbEntity
8
GREENLEAVES_TREES
100
AcDbCircle
10
70
20
30
30
0
40
3
0
TEXT
5
124
100
AcDbEntity
8
GREENLEAVES_LABELS
100
AcDbText
10
71
20
31
30
0
40
0.5
1
GL-0018
100
AcDbText
0
CIRCLE
5
125
100
AcDbEntity
8
GREENLEAVES_TREES
100
AcDbCircle
10
82
20
30
30
0
40
3
0
TEXT
5
126
100
AcDbEntity
8
GREENLEAVES_LABELS
100
AcDbText
10
83
20
31
30
0
40
0.5
1
GL-0019
100
AcDbText
0
CIRCLE
5
127
100
AcDbEntity
8
GREENLEAVES_TREES
100
AcDbCircle
10
94
20
30
30
0
40
3
0
TEXT
5
128
100
AcDbEntity
8
GREENLEAVES_LABELS
100
AcDbText
10
95
20
31
30
0
40
0.5
1
GL-0020
100
AcDbText
0
CIRCLE
5
129
100
AcDbEntity
8
GREENLEAVES_TREES
100
AcDbCircle
10
106
20
30
30
0
40
3
0
TEXT
5
12A
100
AcDbEntity
8
GREENLEAVES_LABELS
100
AcDbText
10
107
20
31
30
0
40
0.5
1
GL-0021
100
AcDbText
0
CIRCLE
5
12B
100
AcDbEntity
8
GREENLEAVES_TREES
100
AcDbCircle
10
6
20
34
30
0
40
3
0
TEXT
5
12C
100
AcDbEntity
8
GREENLEAVES_LABELS
100
AcDbText
10
7
20
35
30
0
40
0.5
1
GL-0022
100
AcDbText
0
CIRCLE
5
12D
100
AcDbEntity
8
GREENLEAVES_TREES
100
AcDbCircle
10
54
20
34
30
0
40
3
0
TEXT
5
12E
100
AcDbEntity
8
GREENLEAVES_LABELS
100
AcDbText
10
55
20
35
30
0
40
0.5
1
GL-0023
100
AcDbText
0
CIRCLE
5
12F
100
AcDbEntity
8
GREENLEAVES_TREES
100
AcDbCircle
10
114
20
34
30
0
40
3
0
TEXT
5
130
100
AcDbEntity
8
GREENLEAVES_LABELS
100
AcDbText
10
115
20
35
30
0
40
0.5
1
GL-0024
100
AcDbText
0
CIRCLE
5
131
100
AcDbEntity
8
GREENLEAVES_TREES
100
AcDbCircle
10
62
20
38
30
0
40
3
0
TEXT
5
132
100
AcDbEntity
8
GREENLEAVES_LABELS
100
AcDbText
10
63
20
39
30
0
40
0.5
1
GL-0025
100
AcDbText
0
CIRCLE
5
133
100
AcDbEntity
8
GREENLEAVES_TREES
100
AcDbCircle
10
74
20
38
30
0
40
3
0
TEXT
5
134
100
AcDbEntity
8
GREENLEAVES_LABELS
100
AcDbText
10
75
20
39
30
0
40
0.5
1
GL-0026
100
AcDbText
0
CIRCLE
5
135
100
AcDbEntity
8
GREENLEAVES_TREES
100
AcDbCircle
10
86
20
38
30
0
40
3
0
TEXT
5
136
100
AcDbEntity
8
GREENLEAVES_LABELS
100
AcDbText
10
87
20
39
30
0
40
0.5
1
GL-0027
100
AcDbText
0
CIRCLE
5
137
100
AcDbEntity
8
GREENLEAVES_TREES
100
AcDbCircle
10
98
20
38
30
0
40
3
0
TEXT
5
138
100
AcDbEntity
8
GREENLEAVES_LABELS
100
AcDbText
10
99
20
39
30
0
40
0.5
1
GL-0028
100
AcDbText
0
CIRCLE
5
139
100
AcDbEntity
8
GREENLEAVES_TREES
100
AcDbCircle
10
46
20
42
30
0
40
3
0
TEXT
5
13A
100
AcDbEntity
8
GREENLEAVES_LABELS
100
AcDbText
10
47
20
43
30
0
40
0.5
1
GL-0029
100
AcDbText
0
CIRCLE
5
13B
100
AcDbEntity
8
GREENLEAVES_TREES
100
AcDbCircle
10
106
20
42
30
0
40
3
0
TEXT
5
13C
100
AcDbEntity
8
GREENLEAVES_LABELS
100
AcDbText
10
107
20
43
30
0
40
0.5
1
GL-0030
100
AcDbText
0
CIRCLE
5
13D
100
AcDbEntity
8
GREENLEAVES_TREES
100
AcDbCircle
10
6
20
46
30
0
40
3
0
TEXT
5
13E
100
AcDbEntity
8
GREENLEAVES_LABELS
100
AcDbText
10
7
20
47
30
0
40
0.5
1
GL-0031
100
AcDbText
0
CIRCLE
5
13F
100
AcDbEntity
8
GREENLEAVES_TREES
100
AcDbCircle
10
54
20
46
30
0
40
3
0
TEXT
5
140
100
AcDbEntity
8
GREENLEAVES_LABELS
100
AcDbText
10
55
20
47
30
0
40
0.5
1
GL-0032
100
AcDbText
0
CIRCLE
5
141
100
AcDbEntity
8
GREENLEAVES_TREES
100
AcDbCircle
10
66
20
46
30
0
40
3
0
TEXT
5
142
100
AcDbEntity
8
GREENLEAVES_LABELS
100
AcDbText
10
67
20
47
30
0
40
0.5
1
GL-0033
100
AcDbText
0
CIRCLE
5
143
100
AcDbEntity
8
GREENLEAVES_TREES
100
AcDbCircle
10
90
20
46
30
0
40
3
0
TEXT
5
144
100
AcDbEntity
8
GREENLEAVES_LABELS
100
AcDbText
10
91
20
47
30
0
40
0.5
1
GL-0034
100
AcDbText
0
CIRCLE
5
145
100
AcDbEntity
8
GREENLEAVES_TREES
100
AcDbCircle
10
114
20
46
30
0
40
3
0
TEXT
5
146
100
AcDbEntity
8
GREENLEAVES_LABELS
100
AcDbText
10
115
20
47
30
0
40
0.5
1
GL-0035
100
AcDbText
0
CIRCLE
5
147
100
AcDbEntity
8
GREENLEAVES_TREES
100
AcDbCircle
10
46
20
54
30
0
40
3
0
TEXT
5
148
100
AcDbEntity
8
GREENLEAVES_LABELS
100
AcDbText
10
47
20
55
30
0
40
0.5
1
GL-0036
100
AcDbText
0
CIRCLE
5
149
100
AcDbEntity
8
GREENLEAVES_TREES
100
AcDbCircle
10
70
20
54
30
0
40
3
0
TEXT
5
14A
100
AcDbEntity
8
GREENLEAVES_LABELS
100
AcDbText
10
71
20
55
30
0
40
0.5
1
GL-0037
100
AcDbText
0
CIRCLE
5
14B
100
AcDbEntity
8
GREENLEAVES_TREES
100
AcDbCircle
10
6
20
58
30
0
40
3
0
TEXT
5
14C
100
AcDbEntity
8
GREENLEAVES_LABELS
100
AcDbText
10
7
20
59
30
0
40
0.5
1
GL-0038
100
AcDbText
0
CIRCLE
5
14D
100
AcDbEntity
8
GREENLEAVES_TREES
100
AcDbCircle
10
54
20
58
30
0
40
3
0
TEXT
5
14E
100
AcDbEntity
8
GREENLEAVES_LABELS
100
AcDbText
10
55
20
59
30
0
40
0.5
1
GL-0039
100
AcDbText
0
CIRCLE
5
14F
100
AcDbEntity
8
GREENLEAVES_TREES
100
AcDbCircle
10
78
20
58
30
0
40
3
0
TEXT
5
150
100
AcDbEntity
8
GREENLEAVES_LABELS
100
AcDbText
10
79
20
59
30
0
40
0.5
1
GL-0040
100
AcDbText
0
CIRCLE
5
151
100
AcDbEntity
8
GREENLEAVES_TREES
100
AcDbCircle
10
90
20
58
30
0
40
3
0
TEXT
5
152
100
AcDbEntity
8
GREENLEAVES_LABELS
100
AcDbText
10
91
20
59
30
0
40
0.5
1
GL-0041
100
AcDbText
0
CIRCLE
5
153
100
AcDbEntity
8
GREENLEAVES_TREES
100
AcDbCircle
10
114
20
58
30
0
40
3
0
TEXT
5
154
100
AcDbEntity
8
GREENLEAVES_LABELS
100
AcDbText
10
115
20
59
30
0
40
0.5
1
GL-0042
100
AcDbText
0
CIRCLE
5
155
100
AcDbEntity
8
GREENLEAVES_TREES
100
AcDbCircle
10
14
20
62
30
0
40
3
0
TEXT
5
156
100
AcDbEntity
8
GREENLEAVES_LABELS
100
AcDbText
10
15
20
63
30
0
40
0.5
1
GL-0043
100
AcDbText
0
CIRCLE
5
157
100
AcDbEntity
8
GREENLEAVES_TREES
100
AcDbCircle
10
26
20
62
30
0
40
3
0
TEXT
5
158
100
AcDbEntity
8
GREENLEAVES_LABELS
100
AcDbText
10
27
20
63
30
0
40
0.5
1
GL-0044
100
AcDbText
0
CIRCLE
5
159
100
AcDbEntity
8
GREENLEAVES_TREES
100
AcDbCircle
10
38
20
62
30
0
40
3
0
TEXT
5
15A
100
AcDbEntity
8
GREENLEAVES_LABELS
100
AcDbText
10
39
20
63
30
0
40
0.5
1
GL-0045
100
AcDbText
0
CIRCLE
5
15B
100
AcDbEntity
8
GREENLEAVES_TREES
100
AcDbCircle
10
62
20
62
30
0
40
3
0
TEXT
5
15C
100
AcDbEntity
8
GREENLEAVES_LABELS
100
AcDbText
10
63
20
63
30
0
40
0.5
1
GL-0046
100
AcDbText
0
CIRCLE
5
15D
100
AcDbEntity
8
GREENLEAVES_TREES
100
AcDbCircle
10
46
20
66
30
0
40
3
0
TEXT
5
15E
100
AcDbEntity
8
GREENLEAVES_LABELS
100
AcDbText
10
47
20
67
30
0
40
0.5
1
GL-0047
100
AcDbText
0
CIRCLE
5
15F
100
AcDbEntity
8
GREENLEAVES_TREES
100
AcDbCircle
10
70
20
66
30
0
40
3
0
TEXT
5
160
100
AcDbEntity
8
GREENLEAVES_LABELS
100
AcDbText
10
71
20
67
30
0
40
0.5
1
GL-0048
100
AcDbText
0
CIRCLE
5
161
100
AcDbEntity
8
GREENLEAVES_TREES
100
AcDbCircle
10
82
20
66
30
0
40
3
0
TEXT
5
162
100
AcDbEntity
8
GREENLEAVES_LABELS
100
AcDbText
10
83
20
67
30
0
40
0.5
1
GL-0049
100
AcDbText
0
CIRCLE
5
163
100
AcDbEntity
8
GREENLEAVES_TREES
100
AcDbCircle
10
6
20
70
30
0
40
3
0
TEXT
5
164
100
AcDbEntity
8
GREENLEAVES_LABELS
100
AcDbText
10
7
20
71
30
0
40
0.5
1
GL-0050
100
AcDbText
0
CIRCLE
5
165
100
AcDbEntity
8
GREENLEAVES_TREES
100
AcDbCircle
10
18
20
70
30
0
40
3
0
TEXT
5
166
100
AcDbEntity
8
GREENLEAVES_LABELS
100
AcDbText
10
19
20
71
30
0
40
0.5
1
GL-0051
100
AcDbText
0
CIRCLE
5
167
100
AcDbEntity
8
GREENLEAVES_TREES
100
AcDbCircle
10
30
20
70
30
0
40
3
0
TEXT
5
168
100
AcDbEntity
8
GREENLEAVES_LABELS
100
AcDbText
10
31
20
71
30
0
40
0.5
1
GL-0052
100
AcDbText
0
CIRCLE
5
169
100
AcDbEntity
8
GREENLEAVES_TREES
100
AcDbCircle
10
54
20
70
30
0
40
3
0
TEXT
5
16A
100
AcDbEntity
8
GREENLEAVES_LABELS
100
AcDbText
10
55
20
71
30
0
40
0.5
1
GL-0053
100
AcDbText
0
CIRCLE
5
16B
100
AcDbEntity
8
GREENLEAVES_TREES
100
AcDbCircle
10
90
20
70
30
0
40
3
0
TEXT
5
16C
100
AcDbEntity
8
GREENLEAVES_LABELS
100
AcDbText
10
91
20
71
30
0
40
0.5
1
GL-0054
100
AcDbText
0
CIRCLE
5
16D
100
AcDbEntity
8
GREENLEAVES_TREES
100
AcDbCircle
10
102
20
70
30
0
40
3
0
TEXT
5
16E
100
AcDbEntity
8
GREENLEAVES_LABELS
100
AcDbText
10
103
20
71
30
0
40
0.5
1
GL-0055
100
AcDbText
0
CIRCLE
5
16F
100
AcDbEntity
8
GREENLEAVES_TREES
100
AcDbCircle
10
114
20
70
30
0
40
3
0
TEXT
5
170
100
AcDbEntity
8
GREENLEAVES_LABELS
100
AcDbText
10
115
20
71
30
0
40
0.5
1
GL-0056
100
AcDbText
0
CIRCLE
5
171
100
AcDbEntity
8
GREENLEAVES_SHRUBS
100
AcDbCircle
10
2
20
2
30
0
40
1.25
0
TEXT
5
172
100
AcDbEntity
8
GREENLEAVES_LABELS
100
AcDbText
10
3
20
3
30
0
40
0.5
1
GL-0057
100
AcDbText
0
CIRCLE
5
173
100
AcDbEntity
8
GREENLEAVES_SHRUBS
100
AcDbCircle
10
6
20
2
30
0
40
1.25
0
TEXT
5
174
100
AcDbEntity
8
GREENLEAVES_LABELS
100
AcDbText
10
7
20
3
30
0
40
0.5
1
GL-0058
100
AcDbText
0
CIRCLE
5
175
100
AcDbEntity
8
GREENLEAVES_SHRUBS
100
AcDbCircle
10
14
20
2
30
0
40
1.25
0
TEXT
5
176
100
AcDbEntity
8
GREENLEAVES_LABELS
100
AcDbText
10
15
20
3
30
0
40
0.5
1
GL-0059
100
AcDbText
0
CIRCLE
5
177
100
AcDbEntity
8
GREENLEAVES_SHRUBS
100
AcDbCircle
10
18
20
2
30
0
40
1.25
0
TEXT
5
178
100
AcDbEntity
8
GREENLEAVES_LABELS
100
AcDbText
10
19
20
3
30
0
40
0.5
1
GL-0060
100
AcDbText
0
CIRCLE
5
179
100
AcDbEntity
8
GREENLEAVES_SHRUBS
100
AcDbCircle
10
26
20
2
30
0
40
1.25
0
TEXT
5
17A
100
AcDbEntity
8
GREENLEAVES_LABELS
100
AcDbText
10
27
20
3
30
0
40
0.5
1
GL-0061
100
AcDbText
0
CIRCLE
5
17B
100
AcDbEntity
8
GREENLEAVES_SHRUBS
100
AcDbCircle
10
30
20
2
30
0
40
1.25
0
TEXT
5
17C
100
AcDbEntity
8
GREENLEAVES_LABELS
100
AcDbText
10
31
20
3
30
0
40
0.5
1
GL-0062
100
AcDbText
0
CIRCLE
5
17D
100
AcDbEntity
8
GREENLEAVES_SHRUBS
100
AcDbCircle
10
38
20
2
30
0
40
1.25
0
TEXT
5
17E
100
AcDbEntity
8
GREENLEAVES_LABELS
100
AcDbText
10
39
20
3
30
0
40
0.5
1
GL-0063
100
AcDbText
0
CIRCLE
5
17F
100
AcDbEntity
8
GREENLEAVES_SHRUBS
100
AcDbCircle
10
42
20
2
30
0
40
1.25
0
TEXT
5
180
100
AcDbEntity
8
GREENLEAVES_LABELS
100
AcDbText
10
43
20
3
30
0
40
0.5
1
GL-0064
100
AcDbText
0
CIRCLE
5
181
100
AcDbEntity
8
GREENLEAVES_SHRUBS
100
AcDbCircle
10
50
20
2
30
0
40
1.25
0
TEXT
5
182
100
AcDbEntity
8
GREENLEAVES_LABELS
100
AcDbText
10
51
20
3
30
0
40
0.5
1
GL-0065
100
AcDbText
0
CIRCLE
5
183
100
AcDbEntity
8
GREENLEAVES_SHRUBS
100
AcDbCircle
10
54
20
2
30
0
40
1.25
0
TEXT
5
184
100
AcDbEntity
8
GREENLEAVES_LABELS
100
AcDbText
10
55
20
3
30
0
40
0.5
1
GL-0066
100
AcDbText
0
CIRCLE
5
185
100
AcDbEntity
8
GREENLEAVES_SHRUBS
100
AcDbCircle
10
58
20
2
30
0
40
1.25
0
TEXT
5
186
100
AcDbEntity
8
GREENLEAVES_LABELS
100
AcDbText
10
59
20
3
30
0
40
0.5
1
GL-0067
100
AcDbText
0
CIRCLE
5
187
100
AcDbEntity
8
GREENLEAVES_SHRUBS
100
AcDbCircle
10
62
20
2
30
0
40
1.25
0
TEXT
5
188
100
AcDbEntity
8
GREENLEAVES_LABELS
100
AcDbText
10
63
20
3
30
0
40
0.5
1
GL-0068
100
AcDbText
0
CIRCLE
5
189
100
AcDbEntity
8
GREENLEAVES_SHRUBS
100
AcDbCircle
10
66
20
2
30
0
40
1.25
0
TEXT
5
18A
100
AcDbEntity
8
GREENLEAVES_LABELS
100
AcDbText
10
67
20
3
30
0
40
0.5
1
GL-0069
100
AcDbText
0
CIRCLE
5
18B
100
AcDbEntity
8
GREENLEAVES_SHRUBS
100
AcDbCircle
10
74
20
2
30
0
40
1.25
0
TEXT
5
18C
100
AcDbEntity
8
GREENLEAVES_LABELS
100
AcDbText
10
75
20
3
30
0
40
0.5
1
GL-0070
100
AcDbText
0
CIRCLE
5
18D
100
AcDbEntity
8
GREENLEAVES_SHRUBS
100
AcDbCircle
10
78
20
2
30
0
40
1.25
0
TEXT
5
18E
100
AcDbEntity
8
GREENLEAVES_LABELS
100
AcDbText
10
79
20
3
30
0
40
0.5
1
GL-0071
100
AcDbText
0
CIRCLE
5
18F
100
AcDbEntity
8
GREENLEAVES_SHRUBS
100
AcDbCircle
10
86
20
2
30
0
40
1.25
0
TEXT
5
190
100
AcDbEntity
8
GREENLEAVES_LABELS
100
AcDbText
10
87
20
3
30
0
40
0.5
1
GL-0072
100
AcDbText
0
CIRCLE
5
191
100
AcDbEntity
8
GREENLEAVES_SHRUBS
100
AcDbCircle
10
90
20
2
30
0
40
1.25
0
TEXT
5
192
100
AcDbEntity
8
GREENLEAVES_LABELS
100
AcDbText
10
91
20
3
30
0
40
0.5
1
GL-0073
100
AcDbText
0
CIRCLE
5
193
100
AcDbEntity
8
GREENLEAVES_SHRUBS
100
AcDbCircle
10
98
20
2
30
0
40
1.25
0
TEXT
5
194
100
AcDbEntity
8
GREENLEAVES_LABELS
100
AcDbText
10
99
20
3
30
0
40
0.5
1
GL-0074
100
AcDbText
0
CIRCLE
5
195
100
AcDbEntity
8
GREENLEAVES_SHRUBS
100
AcDbCircle
10
102
20
2
30
0
40
1.25
0
TEXT
5
196
100
AcDbEntity
8
GREENLEAVES_LABELS
100
AcDbText
10
103
20
3
30
0
40
0.5
1
GL-0075
100
AcDbText
0
CIRCLE
5
197
100
AcDbEntity
8
GREENLEAVES_SHRUBS
100
AcDbCircle
10
110
20
2
30
0
40
1.25
0
TEXT
5
198
100
AcDbEntity
8
GREENLEAVES_LABELS
100
AcDbText
10
111
20
3
30
0
40
0.5
1
GL-0076
100
AcDbText
0
CIRCLE
5
199
100
AcDbEntity
8
GREENLEAVES_SHRUBS
100
AcDbCircle
10
114
20
2
30
0
40
1.25
0
TEXT
5
19A
100
AcDbEntity
8
GREENLEAVES_LABELS
100
AcDbText
10
115
20
3
30
0
40
0.5
1
GL-0077
100
AcDbText
0
CIRCLE
5
19B
100
AcDbEntity
8
GREENLEAVES_SHRUBS
100
AcDbCircle
10
118
20
2
30
0
40
1.25
0
TEXT
5
19C
100
AcDbEntity
8
GREENLEAVES_LABELS
100
AcDbText
10
119
20
3
30
0
40
0.5
1
GL-0078
100
AcDbText
0
CIRCLE
5
19D
100
AcDbEntity
8
GREENLEAVES_SHRUBS
100
AcDbCircle
10
2
20
6
30
0
40
1.25
0
TEXT
5
19E
100
AcDbEntity
8
GREENLEAVES_LABELS
100
AcDbText
10
3
20
7
30
0
40
0.5
1
GL-0079
100
AcDbText
0
CIRCLE
5
19F
100
AcDbEntity
8
GREENLEAVES_SHRUBS
100
AcDbCircle
10
54
20
6
30
0
40
1.25
0
TEXT
5
1A0
100
AcDbEntity
8
GREENLEAVES_LABELS
100
AcDbText
10
55
20
7
30
0
40
0.5
1
GL-0080
100
AcDbText
0
CIRCLE
5
1A1
100
AcDbEntity
8
GREENLEAVES_SHRUBS
100
AcDbCircle
10
58
20
6
30
0
40
1.25
0
TEXT
5
1A2
100
AcDbEntity
8
GREENLEAVES_LABELS
100
AcDbText
10
59
20
7
30
0
40
0.5
1
GL-0081
100
AcDbText
0
CIRCLE
5
1A3
100
AcDbEntity
8
GREENLEAVES_SHRUBS
100
AcDbCircle
10
62
20
6
30
0
40
1.25
0
TEXT
5
1A4
100
AcDbEntity
8
GREENLEAVES_LABELS
100
AcDbText
10
63
20
7
30
0
40
0.5
1
GL-0082
100
AcDbText
0
CIRCLE
5
1A5
100
AcDbEntity
8
GREENLEAVES_SHRUBS
100
AcDbCircle
10
114
20
6
30
0
40
1.25
0
TEXT
5
1A6
100
AcDbEntity
8
GREENLEAVES_LABELS
100
AcDbText
10
115
20
7
30
0
40
0.5
1
GL-0083
100
AcDbText
0
CIRCLE
5
1A7
100
AcDbEntity
8
GREENLEAVES_SHRUBS
100
AcDbCircle
10
118
20
6
30
0
40
1.25
0
TEXT
5
1A8
100
AcDbEntity
8
GREENLEAVES_LABELS
100
AcDbText
10
119
20
7
30
0
40
0.5
1
GL-0084
100
AcDbText
0
CIRCLE
5
1A9
100
AcDbEntity
8
GREENLEAVES_SHRUBS
100
AcDbCircle
10
2
20
18
30
0
40
1.25
0
TEXT
5
1AA
100
AcDbEntity
8
GREENLEAVES_LABELS
100
AcDbText
10
3
20
19
30
0
40
0.5
1
GL-0085
100
AcDbText
0
CIRCLE
5
1AB
100
AcDbEntity
8
GREENLEAVES_SHRUBS
100
AcDbCircle
10
10
20
18
30
0
40
1.25
0
TEXT
5
1AC
100
AcDbEntity
8
GREENLEAVES_LABELS
100
AcDbText
10
11
20
19
30
0
40
0.5
1
GL-0086
100
AcDbText
0
CIRCLE
5
1AD
100
AcDbEntity
8
GREENLEAVES_SHRUBS
100
AcDbCircle
10
14
20
18
30
0
40
1.25
0
TEXT
5
1AE
100
AcDbEntity
8
GREENLEAVES_LABELS
100
AcDbText
10
15
20
19
30
0
40
0.5
1
GL-0087
100
AcDbText
0
CIRCLE
5
1AF
100
AcDbEntity
8
GREENLEAVES_SHRUBS
100
AcDbCircle
10
18
20
18
30
0
40
1.25
0
TEXT
5
1B0
100
AcDbEntity
8
GREENLEAVES_LABELS
100
AcDbText
10
19
20
19
30
0
40
0.5
1
GL-0088
100
AcDbText
0
CIRCLE
5
1B1
100
AcDbEntity
8
GREENLEAVES_SHRUBS
100
AcDbCircle
10
22
20
18
30
0
40
1.25
0
TEXT
5
1B2
100
AcDbEntity
8
GREENLEAVES_LABELS
100
AcDbText
10
23
20
19
30
0
40
0.5
1
GL-0089
100
AcDbText
0
CIRCLE
5
1B3
100
AcDbEntity
8
GREENLEAVES_SHRUBS
100
AcDbCircle
10
26
20
18
30
0
40
1.25
0
TEXT
5
1B4
100
AcDbEntity
8
GREENLEAVES_LABELS
100
AcDbText
10
27
20
19
30
0
40
0.5
1
GL-0090
100
AcDbText
0
CIRCLE
5
1B5
100
AcDbEntity
8
GREENLEAVES_SHRUBS
100
AcDbCircle
10
30
20
18
30
0
40
1.25
0
TEXT
5
1B6
100
AcDbEntity
8
GREENLEAVES_LABELS
100
AcDbText
10
31
20
19
30
0
40
0.5
1
GL-0091
100
AcDbText
0
CIRCLE
5
1B7
100
AcDbEntity
8
GREENLEAVES_SHRUBS
100
AcDbCircle
10
34
20
18
30
0
40
1.25
0
TEXT
5
1B8
100
AcDbEntity
8
GREENLEAVES_LABELS
100
AcDbText
10
35
20
19
30
0
40
0.5
1
GL-0092
100
AcDbText
0
CIRCLE
5
1B9
100
AcDbEntity
8
GREENLEAVES_SHRUBS
100
AcDbCircle
10
38
20
18
30
0
40
1.25
0
TEXT
5
1BA
100
AcDbEntity
8
GREENLEAVES_LABELS
100
AcDbText
10
39
20
19
30
0
40
0.5
1
GL-0093
100
AcDbText
0
CIRCLE
5
1BB
100
AcDbEntity
8
GREENLEAVES_SHRUBS
100
AcDbCircle
10
46
20
18
30
0
40
1.25
0
TEXT
5
1BC
100
AcDbEntity
8
GREENLEAVES_LABELS
100
AcDbText
10
47
20
19
30
0
40
0.5
1
GL-0094
100
AcDbText
0
CIRCLE
5
1BD
100
AcDbEntity
8
GREENLEAVES_SHRUBS
100
AcDbCircle
10
50
20
18
30
0
40
1.25
0
TEXT
5
1BE
100
AcDbEntity
8
GREENLEAVES_LABELS
100
AcDbText
10
51
20
19
30
0
40
0.5
1
GL-0095
100
AcDbText
0
CIRCLE
5
1BF
100
AcDbEntity
8
GREENLEAVES_SHRUBS
100
AcDbCircle
10
58
20
18
30
0
40
1.25
0
TEXT
5
1C0
100
AcDbEntity
8
GREENLEAVES_LABELS
100
AcDbText
10
59
20
19
30
0
40
0.5
1
GL-0096
100
AcDbText
0
CIRCLE
5
1C1
100
AcDbEntity
8
GREENLEAVES_SHRUBS
100
AcDbCircle
10
62
20
18
30
0
40
1.25
0
TEXT
5
1C2
100
AcDbEntity
8
GREENLEAVES_LABELS
100
AcDbText
10
63
20
19
30
0
40
0.5
1
GL-0097
100
AcDbText
0
CIRCLE
5
1C3
100
AcDbEntity
8
GREENLEAVES_SHRUBS
100
AcDbCircle
10
70
20
18
30
0
40
1.25
0
TEXT
5
1C4
100
AcDbEntity
8
GREENLEAVES_LABELS
100
AcDbText
10
71
20
19
30
0
40
0.5
1
GL-0098
100
AcDbText
0
CIRCLE
5
1C5
100
AcDbEntity
8
GREENLEAVES_SHRUBS
100
AcDbCircle
10
74
20
18
30
0
40
1.25
0
TEXT
5
1C6
100
AcDbEntity
8
GREENLEAVES_LABELS
100
AcDbText
10
75
20
19
30
0
40
0.5
1
GL-0099
100
AcDbText
0
CIRCLE
5
1C7
100
AcDbEntity
8
GREENLEAVES_SHRUBS
100
AcDbCircle
10
82
20
18
30
0
40
1.25
0
TEXT
5
1C8
100
AcDbEntity
8
GREENLEAVES_LABELS
100
AcDbText
10
83
20
19
30
0
40
0.5
1
GL-0100
100
AcDbText
0
CIRCLE
5
1C9
100
AcDbEntity
8
GREENLEAVES_SHRUBS
100
AcDbCircle
10
86
20
18
30
0
40
1.25
0
TEXT
5
1CA
100
AcDbEntity
8
GREENLEAVES_LABELS
100
AcDbText
10
87
20
19
30
0
40
0.5
1
GL-0101
100
AcDbText
0
CIRCLE
5
1CB
100
AcDbEntity
8
GREENLEAVES_SHRUBS
100
AcDbCircle
10
94
20
18
30
0
40
1.25
0
TEXT
5
1CC
100
AcDbEntity
8
GREENLEAVES_LABELS
100
AcDbText
10
95
20
19
30
0
40
0.5
1
GL-0102
100
AcDbText
0
CIRCLE
5
1CD
100
AcDbEntity
8
GREENLEAVES_SHRUBS
100
AcDbCircle
10
98
20
18
30
0
40
1.25
0
TEXT
5
1CE
100
AcDbEntity
8
GREENLEAVES_LABELS
100
AcDbText
10
99
20
19
30
0
40
0.5
1
GL-0103
100
AcDbText
0
CIRCLE
5
1CF
100
AcDbEntity
8
GREENLEAVES_SHRUBS
100
AcDbCircle
10
106
20
18
30
0
40
1.25
0
TEXT
5
1D0
100
AcDbEntity
8
GREENLEAVES_LABELS
100
AcDbText
10
107
20
19
30
0
40
0.5
1
GL-0104
100
AcDbText
0
CIRCLE
5
1D1
100
AcDbEntity
8
GREENLEAVES_SHRUBS
100
AcDbCircle
10
110
20
18
30
0
40
1.25
0
TEXT
5
1D2
100
AcDbEntity
8
GREENLEAVES_LABELS
100
AcDbText
10
111
20
19
30
0
40
0.5
1
GL-0105
100
AcDbText
0
CIRCLE
5
1D3
100
AcDbEntity
8
GREENLEAVES_SHRUBS
100
AcDbCircle
10
118
20
18
30
0
40
1.25
0
TEXT
5
1D4
100
AcDbEntity
8
GREENLEAVES_LABELS
100
AcDbText
10
119
20
19
30
0
40
0.5
1
GL-0106
100
AcDbText
0
CIRCLE
5
1D5
100
AcDbEntity
8
GREENLEAVES_SHRUBS
100
AcDbCircle
10
14
20
22
30
0
40
1.25
0
TEXT
5
1D6
100
AcDbEntity
8
GREENLEAVES_LABELS
100
AcDbText
10
15
20
23
30
0
40
0.5
1
GL-0107
100
AcDbText
0
CIRCLE
5
1D7
100
AcDbEntity
8
GREENLEAVES_SHRUBS
100
AcDbCircle
10
18
20
22
30
0
40
1.25
0
TEXT
5
1D8
100
AcDbEntity
8
GREENLEAVES_LABELS
100
AcDbText
10
19
20
23
30
0
40
0.5
1
GL-0108
100
AcDbText
0
CIRCLE
5
1D9
100
AcDbEntity
8
GREENLEAVES_SHRUBS
100
AcDbCircle
10
22
20
22
30
0
40
1.25
0
TEXT
5
1DA
100
AcDbEntity
8
GREENLEAVES_LABELS
100
AcDbText
10
23
20
23
30
0
40
0.5
1
GL-0109
100
AcDbText
0
CIRCLE
5
1DB
100
AcDbEntity
8
GREENLEAVES_SHRUBS
100
AcDbCircle
10
26
20
22
30
0
40
1.25
0
TEXT
5
1DC
100
AcDbEntity
8
GREENLEAVES_LABELS
100
AcDbText
10
27
20
23
30
0
40
0.5
1
GL-0110
100
AcDbText
0
CIRCLE
5
1DD
100
AcDbEntity
8
GREENLEAVES_SHRUBS
100
AcDbCircle
10
30
20
22
30
0
40
1.25
0
TEXT
5
1DE
100
AcDbEntity
8
GREENLEAVES_LABELS
100
AcDbText
10
31
20
23
30
0
40
0.5
1
GL-0111
100
AcDbText
0
CIRCLE
5
1DF
100
AcDbEntity
8
GREENLEAVES_SHRUBS
100
AcDbCircle
10
34
20
22
30
0
40
1.25
0
TEXT
5
1E0
100
AcDbEntity
8
GREENLEAVES_LABELS
100
AcDbText
10
35
20
23
30
0
40
0.5
1
GL-0112
100
AcDbText
0
CIRCLE
5
1E1
100
AcDbEntity
8
GREENLEAVES_SHRUBS
100
AcDbCircle
10
2
20
26
30
0
40
1.25
0
TEXT
5
1E2
100
AcDbEntity
8
GREENLEAVES_LABELS
100
AcDbText
10
3
20
27
30
0
40
0.5
1
GL-0113
100
AcDbText
0
CIRCLE
5
1E3
100
AcDbEntity
8
GREENLEAVES_SHRUBS
100
AcDbCircle
10
10
20
26
30
0
40
1.25
0
TEXT
5
1E4
100
AcDbEntity
8
GREENLEAVES_LABELS
100
AcDbText
10
11
20
27
30
0
40
0.5
1
GL-0114
100
AcDbText
0
CIRCLE
5
1E5
100
AcDbEntity
8
GREENLEAVES_SHRUBS
100
AcDbCircle
10
38
20
26
30
0
40
1.25
0
TEXT
5
1E6
100
AcDbEntity
8
GREENLEAVES_LABELS
100
AcDbText
10
39
20
27
30
0
40
0.5
1
GL-0115
100
AcDbText
0
CIRCLE
5
1E7
100
AcDbEntity
8
GREENLEAVES_SHRUBS
100
AcDbCircle
10
50
20
26
30
0
40
1.25
0
TEXT
5
1E8
100
AcDbEntity
8
GREENLEAVES_LABELS
100
AcDbText
10
51
20
27
30
0
40
0.5
1
GL-0116
100
AcDbText
0
CIRCLE
5
1E9
100
AcDbEntity
8
GREENLEAVES_SHRUBS
100
AcDbCircle
10
58
20
26
30
0
40
1.25
0
TEXT
5
1EA
100
AcDbEntity
8
GREENLEAVES_LABELS
100
AcDbText
10
59
20
27
30
0
40
0.5
1
GL-0117
100
AcDbText
0
CIRCLE
5
1EB
100
AcDbEntity
8
GREENLEAVES_SHRUBS
100
AcDbCircle
10
62
20
26
30
0
40
1.25
0
TEXT
5
1EC
100
AcDbEntity
8
GREENLEAVES_LABELS
100
AcDbText
10
63
20
27
30
0
40
0.5
1
GL-0118
100
AcDbText
0
CIRCLE
5
1ED
100
AcDbEntity
8
GREENLEAVES_SHRUBS
100
AcDbCircle
10
74
20
26
30
0
40
1.25
0
TEXT
5
1EE
100
AcDbEntity
8
GREENLEAVES_LABELS
100
AcDbText
10
75
20
27
30
0
40
0.5
1
GL-0119
100
AcDbText
0
CIRCLE
5
1EF
100
AcDbEntity
8
GREENLEAVES_SHRUBS
100
AcDbCircle
10
86
20
26
30
0
40
1.25
0
TEXT
5
1F0
100
AcDbEntity
8
GREENLEAVES_LABELS
100
AcDbText
10
87
20
27
30
0
40
0.5
1
GL-0120
100
AcDbText
0
CIRCLE
5
1F1
100
AcDbEntity
8
GREENLEAVES_SHRUBS
100
AcDbCircle
10
98
20
26
30
0
40
1.25
0
TEXT
5
1F2
100
AcDbEntity
8
GREENLEAVES_LABELS
100
AcDbText
10
99
20
27
30
0
40
0.5
1
GL-0121
100
AcDbText
0
CIRCLE
5
1F3
100
AcDbEntity
8
GREENLEAVES_SHRUBS
100
AcDbCircle
10
110
20
26
30
0
40
1.25
0
TEXT
5
1F4
100
AcDbEntity
8
GREENLEAVES_LABELS
100
AcDbText
10
111
20
27
30
0
40
0.5
1
GL-0122
100
AcDbText
0
CIRCLE
5
1F5
100
AcDbEntity
8
GREENLEAVES_SHRUBS
100
AcDbCircle
10
118
20
26
30
0
40
1.25
0
TEXT
5
1F6
100
AcDbEntity
8
GREENLEAVES_LABELS
100
AcDbText
10
119
20
27
30
0
40
0.5
1
GL-0123
100
AcDbText
0
CIRCLE
5
1F7
100
AcDbEntity
8
GREENLEAVES_SHRUBS
100
AcDbCircle
10
2
20
30
30
0
40
1.25
0
TEXT
5
1F8
100
AcDbEntity
8
GREENLEAVES_LABELS
100
AcDbText
10
3
20
31
30
0
40
0.5
1
GL-0124
100
AcDbText
0
CIRCLE
5
1F9
100
AcDbEntity
8
GREENLEAVES_SHRUBS
100
AcDbCircle
10
10
20
30
30
0
40
1.25
0
TEXT
5
1FA
100
AcDbEntity
8
GREENLEAVES_LABELS
100
AcDbText
10
11
20
31
30
0
40
0.5
1
GL-0125
100
AcDbText
0
CIRCLE
5
1FB
100
AcDbEntity
8
GREENLEAVES_SHRUBS
100
AcDbCircle
10
38
20
30
30
0
40
1.25
0
TEXT
5
1FC
100
AcDbEntity
8
GREENLEAVES_LABELS
100
AcDbText
10
39
20
31
30
0
40
0.5
1
GL-0126
100
AcDbText
0
CIRCLE
5
1FD
100
AcDbEntity
8
GREENLEAVES_SHRUBS
100
AcDbCircle
10
58
20
30
30
0
40
1.25
0
TEXT
5
1FE
100
AcDbEntity
8
GREENLEAVES_LABELS
100
AcDbText
10
59
20
31
30
0
40
0.5
1
GL-0127
100
AcDbText
0
CIRCLE
5
1FF
100
AcDbEntity
8
GREENLEAVES_SHRUBS
100
AcDbCircle
10
62
20
30
30
0
40
1.25
0
TEXT
5
200
100
AcDbEntity
8
GREENLEAVES_LABELS
100
AcDbText
10
63
20
31
30
0
40
0.5
1
GL-0128
100
AcDbText
0
CIRCLE
5
201
100
AcDbEntity
8
GREENLEAVES_SHRUBS
100
AcDbCircle
10
118
20
30
30
0
40
1.25
0
TEXT
5
202
100
AcDbEntity
8
GREENLEAVES_LABELS
100
AcDbText
10
119
20
31
30
0
40
0.5
1
GL-0129
100
AcDbText
0
CIRCLE
5
203
100
AcDbEntity
8
GREENLEAVES_SHRUBS
100
AcDbCircle
10
38
20
34
30
0
40
1.25
0
TEXT
5
204
100
AcDbEntity
8
GREENLEAVES_LABELS
100
AcDbText
10
39
20
35
30
0
40
0.5
1
GL-0130
100
AcDbText
0
CIRCLE
5
205
100
AcDbEntity
8
GREENLEAVES_SHRUBS
100
AcDbCircle
10
42
20
34
30
0
40
1.25
0
TEXT
5
206
100
AcDbEntity
8
GREENLEAVES_LABELS
100
AcDbText
10
43
20
35
30
0
40
0.5
1
GL-0131
100
AcDbText
0
CIRCLE
5
207
100
AcDbEntity
8
GREENLEAVES_SHRUBS
100
AcDbCircle
10
66
20
34
30
0
40
1.25
0
TEXT
5
208
100
AcDbEntity
8
GREENLEAVES_LABELS
100
AcDbText
10
67
20
35
30
0
40
0.5
1
GL-0132
100
AcDbText
0
CIRCLE
5
209
100
AcDbEntity
8
GREENLEAVES_SHRUBS
100
AcDbCircle
10
78
20
34
30
0
40
1.25
0
TEXT
5
20A
100
AcDbEntity
8
GREENLEAVES_LABELS
100
AcDbText
10
79
20
35
30
0
40
0.5
1
GL-0133
100
AcDbText
0
CIRCLE
5
20B
100
AcDbEntity
8
GREENLEAVES_SHRUBS
100
AcDbCircle
10
90
20
34
30
0
40
1.25
0
TEXT
5
20C
100
AcDbEntity
8
GREENLEAVES_LABELS
100
AcDbText
10
91
20
35
30
0
40
0.5
1
GL-0134
100
AcDbText
0
CIRCLE
5
20D
100
AcDbEntity
8
GREENLEAVES_SHRUBS
100
AcDbCircle
10
102
20
34
30
0
40
1.25
0
TEXT
5
20E
100
AcDbEntity
8
GREENLEAVES_LABELS
100
AcDbText
10
103
20
35
30
0
40
0.5
1
GL-0135
100
AcDbText
0
CIRCLE
5
20F
100
AcDbEntity
8
GREENLEAVES_SHRUBS
100
AcDbCircle
10
2
20
38
30
0
40
1.25
0
TEXT
5
210
100
AcDbEntity
8
GREENLEAVES_LABELS
100
AcDbText
10
3
20
39
30
0
40
0.5
1
GL-0136
100
AcDbText
0
CIRCLE
5
211
100
AcDbEntity
8
GREENLEAVES_SHRUBS
100
AcDbCircle
10
10
20
38
30
0
40
1.25
0
TEXT
5
212
100
AcDbEntity
8
GREENLEAVES_LABELS
100
AcDbText
10
11
20
39
30
0
40
0.5
1
GL-0137
100
AcDbText
0
CIRCLE
5
213
100
AcDbEntity
8
GREENLEAVES_SHRUBS
100
AcDbCircle
10
38
20
38
30
0
40
1.25
0
TEXT
5
214
100
AcDbEntity
8
GREENLEAVES_LABELS
100
AcDbText
10
39
20
39
30
0
40
0.5
1
GL-0138
100
AcDbText
0
CIRCLE
5
215
100
AcDbEntity
8
GREENLEAVES_SHRUBS
100
AcDbCircle
10
42
20
38
30
0
40
1.25
0
TEXT
5
216
100
AcDbEntity
8
GREENLEAVES_LABELS
100
AcDbText
10
43
20
39
30
0
40
0.5
1
GL-0139
100
AcDbText
0
CIRCLE
5
217
100
AcDbEntity
8
GREENLEAVES_SHRUBS
100
AcDbCircle
10
50
20
38
30
0
40
1.25
0
TEXT
5
218
100
AcDbEntity
8
GREENLEAVES_LABELS
100
AcDbText
10
51
20
39
30
0
40
0.5
1
GL-0140
100
AcDbText
0
CIRCLE
5
219
100
AcDbEntity
8
GREENLEAVES_SHRUBS
100
AcDbCircle
10
110
20
38
30
0
40
1.25
0
TEXT
5
21A
100
AcDbEntity
8
GREENLEAVES_LABELS
100
AcDbText
10
111
20
39
30
0
40
0.5
1
GL-0141
100
AcDbText
0
CIRCLE
5
21B
100
AcDbEntity
8
GREENLEAVES_SHRUBS
100
AcDbCircle
10
118
20
38
30
0
40
1.25
0
TEXT
5
21C
100
AcDbEntity
8
GREENLEAVES_LABELS
100
AcDbText
10
119
20
39
30
0
40
0.5
1
GL-0142
100
AcDbText
0
CIRCLE
5
21D
100
AcDbEntity
8
GREENLEAVES_SHRUBS
100
AcDbCircle
10
2
20
42
30
0
40
1.25
0
TEXT
5
21E
100
AcDbEntity
8
GREENLEAVES_LABELS
100
AcDbText
10
3
20
43
30
0
40
0.5
1
GL-0143
100
AcDbText
0
CIRCLE
5
21F
100
AcDbEntity
8
GREENLEAVES_SHRUBS
100
AcDbCircle
10
10
20
42
30
0
40
1.25
0
TEXT
5
220
100
AcDbEntity
8
GREENLEAVES_LABELS
100
AcDbText
10
11
20
43
30
0
40
0.5
1
GL-0144
100
AcDbText
0
CIRCLE
5
221
100
AcDbEntity
8
GREENLEAVES_SHRUBS
100
AcDbCircle
10
38
20
42
30
0
40
1.25
0
TEXT
5
222
100
AcDbEntity
8
GREENLEAVES_LABELS
100
AcDbText
10
39
20
43
30
0
40
0.5
1
GL-0145
100
AcDbText
0
CIRCLE
5
223
100
AcDbEntity
8
GREENLEAVES_SHRUBS
100
AcDbCircle
10
58
20
42
30
0
40
1.25
0
TEXT
5
224
100
AcDbEntity
8
GREENLEAVES_LABELS
100
AcDbText
10
59
20
43
30
0
40
0.5
1
GL-0146
100
AcDbText
0
CIRCLE
5
225
100
AcDbEntity
8
GREENLEAVES_SHRUBS
100
AcDbCircle
10
70
20
42
30
0
40
1.25
0
TEXT
5
226
100
AcDbEntity
8
GREENLEAVES_LABELS
100
AcDbText
10
71
20
43
30
0
40
0.5
1
GL-0147
100
AcDbText
0
CIRCLE
5
227
100
AcDbEntity
8
GREENLEAVES_SHRUBS
100
AcDbCircle
10
78
20
42
30
0
40
1.25
0
TEXT
5
228
100
AcDbEntity
8
GREENLEAVES_LABELS
100
AcDbText
10
79
20
43
30
0
40
0.5
1
GL-0148
100
AcDbText
0
CIRCLE
5
229
100
AcDbEntity
8
GREENLEAVES_SHRUBS
100
AcDbCircle
10
82
20
42
30
0
40
1.25
0
TEXT
5
22A
100
AcDbEntity
8
GREENLEAVES_LABELS
100
AcDbText
10
83
20
43
30
0
40
0.5
1
GL-0149
100
AcDbText
0
CIRCLE
5
22B
100
AcDbEntity
8
GREENLEAVES_SHRUBS
100
AcDbCircle
10
94
20
42
30
0
40
1.25
0
TEXT
5
22C
100
AcDbEntity
8
GREENLEAVES_LABELS
100
AcDbText
10
95
20
43
30
0
40
0.5
1
GL-0150
100
AcDbText
0
CIRCLE
5
22D
100
AcDbEntity
8
GREENLEAVES_SHRUBS
100
AcDbCircle
10
118
20
42
30
0
40
1.25
0
TEXT
5
22E
100
AcDbEntity
8
GREENLEAVES_LABELS
100
AcDbText
10
119
20
43
30
0
40
0.5
1
GL-0151
100
AcDbText
0
CIRCLE
5
22F
100
AcDbEntity
8
GREENLEAVES_SHRUBS
100
AcDbCircle
10
38
20
46
30
0
40
1.25
0
TEXT
5
230
100
AcDbEntity
8
GREENLEAVES_LABELS
100
AcDbText
10
39
20
47
30
0
40
0.5
1
GL-0152
100
AcDbText
0
CIRCLE
5
231
100
AcDbEntity
8
GREENLEAVES_SHRUBS
100
AcDbCircle
10
42
20
46
30
0
40
1.25
0
TEXT
5
232
100
AcDbEntity
8
GREENLEAVES_LABELS
100
AcDbText
10
43
20
47
30
0
40
0.5
1
GL-0153
100
AcDbText
0
CIRCLE
5
233
100
AcDbEntity
8
GREENLEAVES_SHRUBS
100
AcDbCircle
10
98
20
46
30
0
40
1.25
0
TEXT
5
234
100
AcDbEntity
8
GREENLEAVES_LABELS
100
AcDbText
10
99
20
47
30
0
40
0.5
1
GL-0154
100
AcDbText
0
CIRCLE
5
235
100
AcDbEntity
8
GREENLEAVES_SHRUBS
100
AcDbCircle
10
102
20
46
30
0
40
1.25
0
TEXT
5
236
100
AcDbEntity
8
GREENLEAVES_LABELS
100
AcDbText
10
103
20
47
30
0
40
0.5
1
GL-0155
100
AcDbText
0
CIRCLE
5
237
100
AcDbEntity
8
GREENLEAVES_SHRUBS
100
AcDbCircle
10
2
20
50
30
0
40
1.25
0
TEXT
5
238
100
AcDbEntity
8
GREENLEAVES_LABELS
100
AcDbText
10
3
20
51
30
0
40
0.5
1
GL-0156
100
AcDbText
0
CIRCLE
5
239
100
AcDbEntity
8
GREENLEAVES_SHRUBS
100
AcDbCircle
10
10
20
50
30
0
40
1.25
0
TEXT
5
23A
100
AcDbEntity
8
GREENLEAVES_LABELS
100
AcDbText
10
11
20
51
30
0
40
0.5
1
GL-0157
100
AcDbText
0
CIRCLE
5
23B
100
AcDbEntity
8
GREENLEAVES_SHRUBS
100
AcDbCircle
10
38
20
50
30
0
40
1.25
0
TEXT
5
23C
100
AcDbEntity
8
GREENLEAVES_LABELS
100
AcDbText
10
39
20
51
30
0
40
0.5
1
GL-0158
100
AcDbText
0
CIRCLE
5
23D
100
AcDbEntity
8
GREENLEAVES_SHRUBS
100
AcDbCircle
10
42
20
50
30
0
40
1.25
0
TEXT
5
23E
100
AcDbEntity
8
GREENLEAVES_LABELS
100
AcDbText
10
43
20
51
30
0
40
0.5
1
GL-0159
100
AcDbText
0
CIRCLE
5
23F
100
AcDbEntity
8
GREENLEAVES_SHRUBS
100
AcDbCircle
10
50
20
50
30
0
40
1.25
0
TEXT
5
240
100
AcDbEntity
8
GREENLEAVES_LABELS
100
AcDbText
10
51
20
51
30
0
40
0.5
1
GL-0160
100
AcDbText
0
CIRCLE
5
241
100
AcDbEntity
8
GREENLEAVES_SHRUBS
100
AcDbCircle
10
58
20
50
30
0
40
1.25
0
TEXT
5
242
100
AcDbEntity
8
GREENLEAVES_LABELS
100
AcDbText
10
59
20
51
30
0
40
0.5
1
GL-0161
100
AcDbText
0
CIRCLE
5
243
100
AcDbEntity
8
GREENLEAVES_SHRUBS
100
AcDbCircle
10
62
20
50
30
0
40
1.25
0
TEXT
5
244
100
AcDbEntity
8
GREENLEAVES_LABELS
100
AcDbText
10
63
20
51
30
0
40
0.5
1
GL-0162
100
AcDbText
0
CIRCLE
5
245
100
AcDbEntity
8
GREENLEAVES_SHRUBS
100
AcDbCircle
10
86
20
50
30
0
40
1.25
0
TEXT
5
246
100
AcDbEntity
8
GREENLEAVES_LABELS
100
AcDbText
10
87
20
51
30
0
40
0.5
1
GL-0163
100
AcDbText
0
CIRCLE
5
247
100
AcDbEntity
8
GREENLEAVES_SHRUBS
100
AcDbCircle
10
110
20
50
30
0
40
1.25
0
TEXT
5
248
100
AcDbEntity
8
GREENLEAVES_LABELS
100
AcDbText
10
111
20
51
30
0
40
0.5
1
GL-0164
100
AcDbText
0
CIRCLE
5
249
100
AcDbEntity
8
GREENLEAVES_SHRUBS
100
AcDbCircle
10
118
20
50
30
0
40
1.25
0
TEXT
5
24A
100
AcDbEntity
8
GREENLEAVES_LABELS
100
AcDbText
10
119
20
51
30
0
40
0.5
1
GL-0165
100
AcDbText
0
CIRCLE
5
24B
100
AcDbEntity
8
GREENLEAVES_SHRUBS
100
AcDbCircle
10
2
20
54
30
0
40
1.25
0
TEXT
5
24C
100
AcDbEntity
8
GREENLEAVES_LABELS
100
AcDbText
10
3
20
55
30
0
40
0.5
1
GL-0166
100
AcDbText
0
CIRCLE
5
24D
100
AcDbEntity
8
GREENLEAVES_SHRUBS
100
AcDbCircle
10
10
20
54
30
0
40
1.25
0
TEXT
5
24E
100
AcDbEntity
8
GREENLEAVES_LABELS
100
AcDbText
10
11
20
55
30
0
40
0.5
1
GL-0167
100
AcDbText
0
CIRCLE
5
24F
100
AcDbEntity
8
GREENLEAVES_SHRUBS
100
AcDbCircle
10
38
20
54
30
0
40
1.25
0
TEXT
5
250
100
AcDbEntity
8
GREENLEAVES_LABELS
100
AcDbText
10
39
20
55
30
0
40
0.5
1
GL-0168
100
AcDbText
0
CIRCLE
5
251
100
AcDbEntity
8
GREENLEAVES_SHRUBS
100
AcDbCircle
10
58
20
54
30
0
40
1.25
0
TEXT
5
252
100
AcDbEntity
8
GREENLEAVES_LABELS
100
AcDbText
10
59
20
55
30
0
40
0.5
1
GL-0169
100
AcDbText
0
CIRCLE
5
253
100
AcDbEntity
8
GREENLEAVES_SHRUBS
100
AcDbCircle
10
62
20
54
30
0
40
1.25
0
TEXT
5
254
100
AcDbEntity
8
GREENLEAVES_LABELS
100
AcDbText
10
63
20
55
30
0
40
0.5
1
GL-0170
100
AcDbText
0
CIRCLE
5
255
100
AcDbEntity
8
GREENLEAVES_SHRUBS
100
AcDbCircle
10
82
20
54
30
0
40
1.25
0
TEXT
5
256
100
AcDbEntity
8
GREENLEAVES_LABELS
100
AcDbText
10
83
20
55
30
0
40
0.5
1
GL-0171
100
AcDbText
0
CIRCLE
5
257
100
AcDbEntity
8
GREENLEAVES_SHRUBS
100
AcDbCircle
10
86
20
54
30
0
40
1.25
0
TEXT
5
258
100
AcDbEntity
8
GREENLEAVES_LABELS
100
AcDbText
10
87
20
55
30
0
40
0.5
1
GL-0172
100
AcDbText
0
CIRCLE
5
259
100
AcDbEntity
8
GREENLEAVES_SHRUBS
100
AcDbCircle
10
110
20
54
30
0
40
1.25
0
TEXT
5
25A
100
AcDbEntity
8
GREENLEAVES_LABELS
100
AcDbText
10
111
20
55
30
0
40
0.5
1
GL-0173
100
AcDbText
0
CIRCLE
5
25B
100
AcDbEntity
8
GREENLEAVES_SHRUBS
100
AcDbCircle
10
118
20
54
30
0
40
1.25
0
TEXT
5
25C
100
AcDbEntity
8
GREENLEAVES_LABELS
100
AcDbText
10
119
20
55
30
0
40
0.5
1
GL-0174
100
AcDbText
0
CIRCLE
5
25D
100
AcDbEntity
8
GREENLEAVES_SHRUBS
100
AcDbCircle
10
18
20
58
30
0
40
1.25
0
TEXT
5
25E
100
AcDbEntity
8
GREENLEAVES_LABELS
100
AcDbText
10
19
20
59
30
0
40
0.5
1
GL-0175
100
AcDbText
0
CIRCLE
5
25F
100
AcDbEntity
8
GREENLEAVES_SHRUBS
100
AcDbCircle
10
22
20
58
30
0
40
1.25
0
TEXT
5
260
100
AcDbEntity
8
GREENLEAVES_LABELS
100
AcDbText
10
23
20
59
30
0
40
0.5
1
GL-0176
100
AcDbText
0
CIRCLE
5
261
100
AcDbEntity
8
GREENLEAVES_SHRUBS
100
AcDbCircle
10
30
20
58
30
0
40
1.25
0
TEXT
5
262
100
AcDbEntity
8
GREENLEAVES_LABELS
100
AcDbText
10
31
20
59
30
0
40
0.5
1
GL-0177
100
AcDbText
0
CIRCLE
5
263
100
AcDbEntity
8
GREENLEAVES_SHRUBS
100
AcDbCircle
10
34
20
58
30
0
40
1.25
0
TEXT
5
264
100
AcDbEntity
8
GREENLEAVES_LABELS
100
AcDbText
10
35
20
59
30
0
40
0.5
1
GL-0178
100
AcDbText
0
CIRCLE
5
265
100
AcDbEntity
8
GREENLEAVES_SHRUBS
100
AcDbCircle
10
42
20
58
30
0
40
1.25
0
TEXT
5
266
100
AcDbEntity
8
GREENLEAVES_LABELS
100
AcDbText
10
43
20
59
30
0
40
0.5
1
GL-0179
100
AcDbText
0
CIRCLE
5
267
100
AcDbEntity
8
GREENLEAVES_SHRUBS
100
AcDbCircle
10
66
20
58
30
0
40
1.25
0
TEXT
5
268
100
AcDbEntity
8
GREENLEAVES_LABELS
100
AcDbText
10
67
20
59
30
0
40
0.5
1
GL-0180
100
AcDbText
0
ENDSEC
0
EOF
